<svg id="Layer_1" data-name="Layer 1" xmlns="http://www.w3.org/2000/svg" viewBox="0 0 300 300"><defs><style>.cls-1,.cls-2,.cls-3{opacity:0.75;}.cls-2{fill:#29abe2;}.cls-3{fill:#0071bc;}</style></defs><title>bluecrystal</title><g class="cls-1"><polygon class="cls-2" points="109.62 52.51 150 150 190.38 52.51 109.62 52.51"/><polygon class="cls-3" points="52.51 109.62 150 150 109.62 52.51 52.51 109.62"/><polygon class="cls-2" points="52.51 190.38 150 150 52.51 109.62 52.51 190.38"/><polygon class="cls-3" points="109.62 247.49 150 150 52.51 190.38 109.62 247.49"/><polygon class="cls-2" points="109.62 247.49 150 150 190.38 247.49 109.62 247.49"/><polygon class="cls-3" points="247.49 190.38 150 150 190.38 247.49 247.49 190.38"/><polygon class="cls-2" points="150 150 247.49 109.62 247.49 190.38 150 150"/><polygon class="cls-3" points="190.38 52.51 150 150 247.49 109.62 190.38 52.51"/></g><g class="cls-1"><polygon class="cls-2" points="150.06 57.81 150 150 215.14 84.77 150.06 57.81"/><polygon class="cls-2" points="57.94 150.06 150 150 84.95 84.86 57.94 150.06"/><polygon class="cls-2" points="84.86 215.23 150 150 149.94 242.19 84.86 215.23"/><polygon class="cls-2" points="150 150 242.06 149.94 215.05 215.14 150 150"/><polygon class="cls-3" points="84.95 84.86 150 150 150.06 57.81 84.95 84.86"/><polygon class="cls-3" points="84.86 215.23 150 150 57.94 150.06 84.86 215.23"/><polygon class="cls-3" points="215.05 215.14 150 150 149.94 242.19 215.05 215.14"/><polygon class="cls-3" points="215.14 84.77 150 150 242.06 149.94 215.14 84.77"/></g><g class="cls-1"><polygon class="cls-2" points="180.21 78.36 150.06 150.06 222.05 120.58 180.21 78.36"/><polygon class="cls-3" points="120.72 78.14 150.06 150.06 180.21 78.36 120.72 78.14"/><polygon class="cls-2" points="78.42 120.06 150.06 150.06 120.72 78.14 78.42 120.06"/><polygon class="cls-3" points="78.08 179.55 150.06 150.06 78.42 120.06 78.08 179.55"/><polygon class="cls-2" points="78.08 179.55 150.06 150.06 119.92 221.77 78.08 179.55"/><polygon class="cls-3" points="179.41 221.99 150.06 150.06 119.92 221.77 179.41 221.99"/><polygon class="cls-2" points="150.06 150.06 221.71 180.07 179.41 221.99 150.06 150.06"/><polygon class="cls-3" points="222.05 120.58 150.06 150.06 221.71 180.07 222.05 120.58"/></g><g class="cls-1"><polygon class="cls-2" points="195.43 105.07 150.06 150.32 214.14 150.31 195.43 105.07"/><polygon class="cls-3" points="150.14 86.33 150.06 150.32 195.43 105.07 150.14 86.33"/><polygon class="cls-2" points="104.81 105.08 150.06 150.32 150.14 86.33 104.81 105.08"/><polygon class="cls-3" points="85.98 150.34 150.06 150.32 104.81 105.08 85.98 150.34"/><polygon class="cls-2" points="85.98 150.34 150.06 150.32 104.7 195.58 85.98 150.34"/><polygon class="cls-3" points="149.99 214.31 150.06 150.32 104.7 195.58 149.99 214.31"/><polygon class="cls-2" points="150.06 150.32 195.32 195.56 149.99 214.31 150.06 150.32"/><polygon class="cls-3" points="214.14 150.31 150.06 150.32 195.32 195.56 214.14 150.31"/></g><g class="cls-1"><polygon class="cls-2" points="198.9 131.1 150.47 150.34 198.35 170.92 198.9 131.1"/><polygon class="cls-3" points="171.09 102.55 150.47 150.34 198.9 131.1 171.09 102.55"/><polygon class="cls-2" points="131.19 101.99 150.47 150.34 171.09 102.55 131.19 101.99"/><polygon class="cls-3" points="102.58 129.75 150.47 150.34 131.19 101.99 102.58 129.75"/><polygon class="cls-2" points="102.58 129.75 150.47 150.34 102.03 169.57 102.58 129.75"/><polygon class="cls-3" points="129.85 198.12 150.47 150.34 102.03 169.57 129.85 198.12"/><polygon class="cls-2" points="150.47 150.34 169.74 198.68 129.85 198.12 150.47 150.34"/><polygon class="cls-3" points="198.35 170.92 150.47 150.34 169.74 198.68 198.35 170.92"/></g></svg>