<svg xmlns="http://www.w3.org/2000/svg" viewBox="0 0 216.9 57.43"><title>cclogo</title><g id="Layer_2" data-name="Layer 2"><g id="Layer_1-2" data-name="Layer 1"><path d="M19.5,0A20.1,20.1,0,0,1,34.92,6.6l-6.06,5.76a13.38,13.38,0,0,0-9.36-4c-6.42,0-10.56,4.8-10.56,10.86S13.08,30.06,19.5,30.06a13.38,13.38,0,0,0,9.36-4l5.88,5.76A20.44,20.44,0,0,1,19.5,38.4C8.1,38.4,0,29.94,0,19.2S8.1,0,19.5,0Z"/><path d="M39.18,1.2H54.24C62,1.2,67,5.88,67,12.66c0,6.3-3.18,9.84-8.52,11.16L68.22,37.2h-11L48,23.76V37.2H39.18Zm15.9,15.6c2,0,3.3-2,3.3-4.14a3.81,3.81,0,0,0-3.54-4H48v8.1Z"/><path d="M79.26,19.8,66.48,1.2h10L83.64,12,90.9,1.2h9.9L88,19.8V37.2H79.26Z"/><path d="M110.46,26.64a3.75,3.75,0,0,0,3.72,3.78c2.22,0,3.6-1.26,3.6-3.12,0-2.7-3.54-3.48-6.48-4.5-6.06-2.16-9.42-5-9.42-11.16C101.88,5.28,107.34,0,114.12,0c8,0,11.76,5.1,12.24,11.76h-8.28a3.76,3.76,0,0,0-7.5-.24c0,2.7,3.3,3.18,6.36,4.08,6.42,1.92,9.42,5.52,9.42,11.16A11.93,11.93,0,0,1,114.18,38.4c-7.86,0-12.3-5.28-12.3-11.76Z"/><path d="M138.06,9h-8V1.2H155.1V9h-8.16V37.2h-8.88Z"/><path d="M169.38,0h1.56l17.64,37.2H179.1l-1.8-3.72H163.08l-1.74,3.72h-9.48Zm4.92,27.18-4.14-9.12H170l-4.2,9.12Z"/><path d="M192.42,1.2h8.82V29.64H216.9V37.2H192.42Z"/><path d="M37.51,44.86a6.58,6.58,0,0,1,5,2.16l-2,1.89a4.38,4.38,0,0,0-3.07-1.32,3.56,3.56,0,0,0,0,7.11,4.38,4.38,0,0,0,3.07-1.32l1.93,1.89a6.69,6.69,0,0,1-5,2.16,6.29,6.29,0,1,1,0-12.58Z"/><path d="M56.52,44.86a6.29,6.29,0,1,1-6.35,6.29A6.16,6.16,0,0,1,56.52,44.86Zm0,9.84a3.56,3.56,0,1,0-3.42-3.56A3.36,3.36,0,0,0,56.52,54.7Z"/><path d="M71.55,45.25h2.89v9.31h5.13V57h-8Z"/><path d="M88,45.25h2.89v9.31h5.13V57H88Z"/><path d="M104.14,45.25h7.8V47.8H107v2.12h4.54v2.52H107v2.12h5.13V57h-8Z"/><path d="M126.74,44.86A6.58,6.58,0,0,1,131.79,47l-2,1.89a4.38,4.38,0,0,0-3.07-1.32,3.56,3.56,0,0,0,0,7.11,4.38,4.38,0,0,0,3.07-1.32l1.93,1.89a6.69,6.69,0,0,1-5,2.16,6.29,6.29,0,1,1,0-12.58Z"/><path d="M141.95,47.8h-2.63V45.25h8.21V47.8h-2.67V57h-2.91Z"/><path d="M161.23,44.86a6.29,6.29,0,1,1-6.35,6.29A6.16,6.16,0,0,1,161.23,44.86Zm0,9.84a3.56,3.56,0,1,0-3.42-3.56A3.36,3.36,0,0,0,161.23,54.7Z"/><path d="M176.26,45.25h4.93c2.53,0,4.19,1.53,4.19,3.75a3.4,3.4,0,0,1-2.79,3.65L185.77,57h-3.62l-3-4.4V57h-2.89Zm5.21,5.11a1.35,1.35,0,0,0-.08-2.65h-2.24v2.65Z"/></g></g></svg>