<svg id="Layer_1" data-name="Layer 1" xmlns="http://www.w3.org/2000/svg" viewBox="0 0 300 300"><defs><style>.cls-1,.cls-2,.cls-3{opacity:0.75;}.cls-2{fill:#39b54a;}.cls-3{fill:#009245;}</style></defs><title>greencrystal</title><g class="cls-1"><polygon class="cls-2" points="109.62 52.51 150 150 190.38 52.51 109.62 52.51"/><polygon class="cls-3" points="52.51 109.62 150 150 109.62 52.51 52.51 109.62"/><polygon class="cls-2" points="52.51 190.38 150 150 52.51 109.62 52.51 190.38"/><polygon class="cls-3" points="109.62 247.49 150 150 52.51 190.38 109.62 247.49"/><polygon class="cls-2" points="109.62 247.49 150 150 190.38 247.49 109.62 247.49"/><polygon class="cls-3" points="247.49 190.38 150 150 190.38 247.49 247.49 190.38"/><polygon class="cls-2" points="150 150 247.49 109.62 247.49 190.38 150 150"/><polygon class="cls-3" points="190.38 52.51 150 150 247.49 109.62 190.38 52.51"/></g><g class="cls-1"><polygon class="cls-2" points="150.06 57.49 150 149.68 215.14 84.44 150.06 57.49"/><polygon class="cls-3" points="84.95 84.53 150 149.68 150.06 57.49 84.95 84.53"/><polygon class="cls-2" points="57.94 149.74 150 149.68 84.95 84.53 57.94 149.74"/><polygon class="cls-3" points="84.86 214.91 150 149.68 57.94 149.74 84.86 214.91"/><polygon class="cls-2" points="84.86 214.91 150 149.68 149.94 241.86 84.86 214.91"/><polygon class="cls-3" points="215.05 214.82 150 149.68 149.94 241.86 215.05 214.82"/><polygon class="cls-2" points="150 149.68 242.06 149.61 215.05 214.82 150 149.68"/><polygon class="cls-3" points="215.14 84.44 150 149.68 242.06 149.61 215.14 84.44"/></g><g class="cls-1"><polygon class="cls-2" points="180.15 77.97 150 149.68 221.98 120.19 180.15 77.97"/><polygon class="cls-3" points="120.65 77.75 150 149.68 180.15 77.97 120.65 77.75"/><polygon class="cls-2" points="78.35 119.67 150 149.68 120.65 77.75 78.35 119.67"/><polygon class="cls-3" points="78.02 179.16 150 149.68 78.35 119.67 78.02 179.16"/><polygon class="cls-2" points="78.02 179.16 150 149.68 119.85 221.38 78.02 179.16"/><polygon class="cls-3" points="179.35 221.6 150 149.68 119.85 221.38 179.35 221.6"/><polygon class="cls-2" points="150 149.68 221.65 179.68 179.35 221.6 150 149.68"/><polygon class="cls-3" points="221.98 120.19 150 149.68 221.65 179.68 221.98 120.19"/></g><g class="cls-1"><polygon class="cls-2" points="195.37 104.42 150 149.68 214.08 149.66 195.37 104.42"/><polygon class="cls-3" points="150.08 85.69 150 149.68 195.37 104.42 150.08 85.69"/><polygon class="cls-2" points="104.74 104.44 150 149.68 150.08 85.69 104.74 104.44"/><polygon class="cls-3" points="85.92 149.69 150 149.68 104.74 104.44 85.92 149.69"/><polygon class="cls-2" points="85.92 149.69 150 149.68 104.63 194.93 85.92 149.69"/><polygon class="cls-3" points="149.92 213.67 150 149.68 104.63 194.93 149.92 213.67"/><polygon class="cls-2" points="150 149.68 195.26 194.92 149.92 213.67 150 149.68"/><polygon class="cls-3" points="214.08 149.66 150 149.68 195.26 194.92 214.08 149.66"/></g><g class="cls-1"><polygon class="cls-2" points="198.44 130.44 150 149.68 197.88 170.26 198.44 130.44"/><polygon class="cls-3" points="170.62 101.89 150 149.68 198.44 130.44 170.62 101.89"/><polygon class="cls-2" points="130.72 101.33 150 149.68 170.62 101.89 130.72 101.33"/><polygon class="cls-3" points="102.12 129.09 150 149.68 130.72 101.33 102.12 129.09"/><polygon class="cls-2" points="102.12 129.09 150 149.68 101.56 168.91 102.12 129.09"/><polygon class="cls-3" points="129.38 197.46 150 149.68 101.56 168.91 129.38 197.46"/><polygon class="cls-2" points="150 149.68 169.28 198.02 129.38 197.46 150 149.68"/><polygon class="cls-3" points="197.88 170.26 150 149.68 169.28 198.02 197.88 170.26"/></g></svg>