<svg id="Layer_1" data-name="Layer 1" xmlns="http://www.w3.org/2000/svg" viewBox="0 0 300 300"><defs><style>.cls-1,.cls-2,.cls-3{opacity:0.75;}.cls-2{fill:#ed1c24;}.cls-3{fill:#c1272d;}</style></defs><title>redcrystal</title><g class="cls-1"><polygon class="cls-2" points="109.62 52.51 150 150 190.38 52.51 109.62 52.51"/><polygon class="cls-3" points="52.51 109.62 150 150 109.62 52.51 52.51 109.62"/><polygon class="cls-2" points="52.51 190.38 150 150 52.51 109.62 52.51 190.38"/><polygon class="cls-3" points="109.62 247.49 150 150 52.51 190.38 109.62 247.49"/><polygon class="cls-2" points="109.62 247.49 150 150 190.38 247.49 109.62 247.49"/><polygon class="cls-3" points="247.49 190.38 150 150 190.38 247.49 247.49 190.38"/><polygon class="cls-2" points="150 150 247.49 109.62 247.49 190.38 150 150"/><polygon class="cls-3" points="190.38 52.51 150 150 247.49 109.62 190.38 52.51"/></g><g class="cls-1"><polygon class="cls-2" points="150.06 57.81 150 150 215.14 84.77 150.06 57.81"/><polygon class="cls-2" points="57.94 150.06 150 150 84.95 84.86 57.94 150.06"/><polygon class="cls-2" points="84.86 215.23 150 150 149.94 242.19 84.86 215.23"/><polygon class="cls-2" points="150 150 242.06 149.94 215.05 215.14 150 150"/><polygon class="cls-3" points="84.95 84.86 150 150 150.06 57.81 84.95 84.86"/><polygon class="cls-3" points="84.86 215.23 150 150 57.94 150.06 84.86 215.23"/><polygon class="cls-3" points="215.05 215.14 150 150 149.94 242.19 215.05 215.14"/><polygon class="cls-3" points="215.14 84.77 150 150 242.06 149.94 215.14 84.77"/></g><g class="cls-1"><polygon class="cls-2" points="180.15 78.29 150 150 221.98 120.51 180.15 78.29"/><polygon class="cls-3" points="120.65 78.08 150 150 180.15 78.29 120.65 78.08"/><polygon class="cls-2" points="78.35 119.99 150 150 120.65 78.08 78.35 119.99"/><polygon class="cls-3" points="78.02 179.49 150 150 78.35 119.99 78.02 179.49"/><polygon class="cls-2" points="78.02 179.49 150 150 119.85 221.71 78.02 179.49"/><polygon class="cls-3" points="179.35 221.92 150 150 119.85 221.71 179.35 221.92"/><polygon class="cls-2" points="150 150 221.65 180.01 179.35 221.92 150 150"/><polygon class="cls-3" points="221.98 120.51 150 150 221.65 180.01 221.98 120.51"/></g><g class="cls-1"><polygon class="cls-2" points="195.37 104.74 150 150 214.08 149.99 195.37 104.74"/><polygon class="cls-3" points="150.08 86.01 150 150 195.37 104.74 150.08 86.01"/><polygon class="cls-2" points="104.74 104.76 150 150 150.08 86.01 104.74 104.76"/><polygon class="cls-3" points="85.92 150.01 150 150 104.74 104.76 85.92 150.01"/><polygon class="cls-2" points="85.92 150.01 150 150 104.63 195.26 85.92 150.01"/><polygon class="cls-3" points="149.92 213.99 150 150 104.63 195.26 149.92 213.99"/><polygon class="cls-2" points="150 150 195.26 195.24 149.92 213.99 150 150"/><polygon class="cls-3" points="214.08 149.99 150 150 195.26 195.24 214.08 149.99"/></g><g class="cls-1"><polygon class="cls-2" points="198.44 130.76 150 150 197.88 170.58 198.44 130.76"/><polygon class="cls-3" points="170.62 102.21 150 150 198.44 130.76 170.62 102.21"/><polygon class="cls-2" points="130.72 101.66 150 150 170.62 102.21 130.72 101.66"/><polygon class="cls-3" points="102.12 129.42 150 150 130.72 101.66 102.12 129.42"/><polygon class="cls-2" points="102.12 129.42 150 150 101.56 169.24 102.12 129.42"/><polygon class="cls-3" points="129.38 197.79 150 150 101.56 169.24 129.38 197.79"/><polygon class="cls-2" points="150 150 169.28 198.34 129.38 197.79 150 150"/><polygon class="cls-3" points="197.88 170.58 150 150 169.28 198.34 197.88 170.58"/></g></svg>