<svg id="Layer_1" data-name="Layer 1" xmlns="http://www.w3.org/2000/svg" viewBox="0 0 300 300"><defs><style>.cls-1,.cls-2,.cls-3{opacity:0.75;}.cls-2{fill:#fbb03b;}.cls-3{fill:#f7931e;}</style></defs><title>yellowcrystal</title><g class="cls-1"><polygon class="cls-2" points="109.62 52.51 150 150 190.38 52.51 109.62 52.51"/><polygon class="cls-3" points="52.51 109.62 150 150 109.62 52.51 52.51 109.62"/><polygon class="cls-2" points="52.51 190.38 150 150 52.51 109.62 52.51 190.38"/><polygon class="cls-3" points="109.62 247.49 150 150 52.51 190.38 109.62 247.49"/><polygon class="cls-2" points="109.62 247.49 150 150 190.38 247.49 109.62 247.49"/><polygon class="cls-3" points="247.49 190.38 150 150 190.38 247.49 247.49 190.38"/><polygon class="cls-2" points="150 150 247.49 109.62 247.49 190.38 150 150"/><polygon class="cls-3" points="190.38 52.51 150 150 247.49 109.62 190.38 52.51"/></g><g class="cls-1"><polygon class="cls-2" points="150.06 57.81 150 150 215.14 84.77 150.06 57.81"/><polygon class="cls-2" points="57.94 150.06 150 150 84.95 84.86 57.94 150.06"/><polygon class="cls-2" points="84.86 215.23 150 150 149.94 242.19 84.86 215.23"/><polygon class="cls-2" points="150 150 242.06 149.94 215.05 215.14 150 150"/><polygon class="cls-3" points="84.95 84.86 150 150 150.06 57.81 84.95 84.86"/><polygon class="cls-3" points="84.86 215.23 150 150 57.94 150.06 84.86 215.23"/><polygon class="cls-3" points="215.05 215.14 150 150 149.94 242.19 215.05 215.14"/><polygon class="cls-3" points="215.14 84.77 150 150 242.06 149.94 215.14 84.77"/></g><g class="cls-1"><polygon class="cls-2" points="180.21 78.36 150.06 150.06 222.05 120.58 180.21 78.36"/><polygon class="cls-3" points="120.72 78.14 150.06 150.06 180.21 78.36 120.72 78.14"/><polygon class="cls-2" points="78.42 120.06 150.06 150.06 120.72 78.14 78.42 120.06"/><polygon class="cls-3" points="78.08 179.55 150.06 150.06 78.42 120.06 78.08 179.55"/><polygon class="cls-2" points="78.08 179.55 150.06 150.06 119.92 221.77 78.08 179.55"/><polygon class="cls-3" points="179.41 221.99 150.06 150.06 119.92 221.77 179.41 221.99"/><polygon class="cls-2" points="150.06 150.06 221.71 180.07 179.41 221.99 150.06 150.06"/><polygon class="cls-3" points="222.05 120.58 150.06 150.06 221.71 180.07 222.05 120.58"/></g><g class="cls-1"><polygon class="cls-2" points="195.83 104.55 150.47 149.8 214.54 149.79 195.83 104.55"/><polygon class="cls-3" points="150.54 85.81 150.47 149.8 195.83 104.55 150.54 85.81"/><polygon class="cls-2" points="105.21 104.56 150.47 149.8 150.54 85.81 105.21 104.56"/><polygon class="cls-3" points="86.39 149.82 150.47 149.8 105.21 104.56 86.39 149.82"/><polygon class="cls-2" points="86.39 149.82 150.47 149.8 105.1 195.06 86.39 149.82"/><polygon class="cls-3" points="150.39 213.79 150.47 149.8 105.1 195.06 150.39 213.79"/><polygon class="cls-2" points="150.47 149.8 195.72 195.04 150.39 213.79 150.47 149.8"/><polygon class="cls-3" points="214.54 149.79 150.47 149.8 195.72 195.04 214.54 149.79"/></g><g class="cls-1"><polygon class="cls-2" points="198.98 130.76 150.54 150 198.43 170.58 198.98 130.76"/><polygon class="cls-3" points="171.16 102.21 150.54 150 198.98 130.76 171.16 102.21"/><polygon class="cls-2" points="131.26 101.66 150.54 150 171.16 102.21 131.26 101.66"/><polygon class="cls-3" points="102.66 129.42 150.54 150 131.26 101.66 102.66 129.42"/><polygon class="cls-2" points="102.66 129.42 150.54 150 102.11 169.24 102.66 129.42"/><polygon class="cls-3" points="129.92 197.79 150.54 150 102.11 169.24 129.92 197.79"/><polygon class="cls-2" points="150.54 150 169.82 198.34 129.92 197.79 150.54 150"/><polygon class="cls-3" points="198.43 170.58 150.54 150 169.82 198.34 198.43 170.58"/></g></svg>